<?xml version="1.0" encoding="UTF-8" standalone="no"?>
<svg
   width="423.33331mm"
   height="105.83333mm"
   viewBox="0 0 423.33332 105.83332"
   version="1.1"
   id="svg2155"
   inkscape:version="1.2 (dc2aeda, 2022-05-15)"
   sodipodi:docname="courtyard_simple_logo_banner.svg"
   inkscape:export-filename="courtyard_simple_logo_banner.png"
   inkscape:export-xdpi="180"
   inkscape:export-ydpi="180"
   xmlns:inkscape="http://www.inkscape.org/namespaces/inkscape"
   xmlns:sodipodi="http://sodipodi.sourceforge.net/DTD/sodipodi-0.dtd"
   xmlns="http://www.w3.org/2000/svg"
   xmlns:svg="http://www.w3.org/2000/svg"
   xmlns:rdf="http://www.w3.org/1999/02/22-rdf-syntax-ns#"
   xmlns:cc="http://creativecommons.org/ns#"
   xmlns:dc="http://purl.org/dc/elements/1.1/">
  <defs
     id="defs2149">
    <clipPath
       id="clip0_616_83">
      <rect
         id="rect855"
         fill="#ffffff"
         height="249"
         width="1033"
         x="0"
         y="0" />
    </clipPath>
  </defs>
  <sodipodi:namedview
     id="base"
     pagecolor="#ffffff"
     bordercolor="#666666"
     borderopacity="1.0"
     inkscape:pageopacity="0.0"
     inkscape:pageshadow="2"
     inkscape:zoom="0.36392838"
     inkscape:cx="666.3399"
     inkscape:cy="163.49371"
     inkscape:document-units="mm"
     inkscape:current-layer="layer1"
     inkscape:document-rotation="0"
     showgrid="false"
     inkscape:window-width="1252"
     inkscape:window-height="855"
     inkscape:window-x="0"
     inkscape:window-y="44"
     inkscape:window-maximized="0"
     inkscape:showpageshadow="2"
     inkscape:pagecheckerboard="0"
     inkscape:deskcolor="#d1d1d1" />
  <metadata
     id="metadata2152">
    <rdf:RDF>
      <cc:Work
         rdf:about="">
        <dc:format>image/svg+xml</dc:format>
        <dc:type
           rdf:resource="http://purl.org/dc/dcmitype/StillImage" />
        <dc:title />
      </cc:Work>
    </rdf:RDF>
  </metadata>
  <g
     inkscape:label="Layer 1"
     inkscape:groupmode="layer"
     id="layer1"
     transform="translate(49.429283,-161.46726)">
    <path
       inkscape:export-ydpi="96"
       inkscape:export-xdpi="96"
       inkscape:export-filename="/Users/paulin/Desktop/lollllll.png"
       id="rect841"
       style="fill:#0c5ad0;fill-opacity:1;stroke-width:15.2274;stroke-linecap:round;paint-order:stroke fill markers"
       d="M -49.429283,161.46726 H 373.90404 V 267.30059 H -49.429283 Z" />
    <g
       clip-path="url(#clip0_616_83)"
       id="g853"
       style="fill:#ffffff"
       transform="matrix(0.20491076,0,0,0.20491076,56.404043,188.87971)">
      <path
         d="m 568.46277,85.989249 c -5.09788,2.302464 -9.21517,6.351989 -11.61684,11.425 -2.40115,5.073011 -2.92976,10.839001 -1.49094,16.267701 2.56901,9.65724 1.5853,19.92233 -2.77024,28.90917 -4.35553,8.98736 -11.79044,16.0928 -20.93941,20.012 l -4.68812,-17.57801 c 4.56249,-2.56536 8.14388,-6.58726 10.17698,-11.42865 2.03259,-4.84192 2.40063,-10.22704 1.04575,-15.3025 -1.35488,-5.07546 -4.35501,-9.55209 -8.526,-12.72061 -4.17099,-3.16851 -9.27409,-4.84806 -14.50177,-4.77284 l -4.68031,-17.585927 c 10.54034,-1.297381 21.17243,1.545785 29.6781,7.936508 3.20188,-7.506585 8.53695,-13.896369 15.33586,-18.368728 -2.13163,-1.654634 -4.37273,-3.161737 -6.70768,-4.510832 -13.83136,-8.031161 -30.13372,-10.623223 -45.75567,-7.275154 -15.62201,3.348068 -29.45462,12.398524 -38.82426,25.402099 -9.36958,13.003523 -13.61086,29.036634 -11.90405,45.000664 1.70681,15.96404 9.24053,30.72542 21.14498,41.43101 11.90445,10.70507 27.33435,16.5943 43.30719,16.52966 15.97342,-0.0652 31.35516,-6.08003 43.1727,-16.88206 11.81807,-10.80204 19.23212,-25.62389 20.81065,-41.60148 1.578,-15.97759 -2.79266,-31.975718 -12.26692,-44.902504 z M 503.93341,103.8155 c -4.56161,2.56468 -8.14222,6.58512 -10.17516,11.42516 -2.033,4.84035 -2.40225,10.22338 -1.04945,15.29832 1.35285,5.07442 4.35053,9.5509 8.51881,12.72098 4.16828,3.16955 9.26876,4.85182 14.4954,4.77988 l 4.68031,17.57853 c -9.86941,1.20109 -19.83881,-1.21778 -28.07612,-6.81247 -8.2373,-5.59468 -14.18939,-13.98984 -16.76262,-23.64239 -2.57324,-9.65255 -1.59474,-19.91399 2.75568,-28.89953 4.35043,-8.985427 11.78054,-16.091021 20.92513,-20.01121 z"
         fill="#0c5ad0"
         id="path851"
         style="fill:#ffffff;stroke-width:0.521309" />
    </g>
  </g>
</svg>
